<svg width="88" height="16" viewBox="0 0 88 16" fill="none" xmlns="http://www.w3.org/2000/svg">
<path d="M20.2856 12.9202V1.38257H28.0708V3.56242H22.8703V5.82635H27.4823V7.95637H22.8703V10.7372H28.4757V12.9171L20.2856 12.9202Z" fill="url(#paint0_linear_1485_3954)"/>
<path d="M30.2075 4.4625C30.7444 4.31774 31.2892 4.2044 31.8393 4.12306C32.5337 4.01513 33.2355 3.96203 33.9382 3.96425C34.5736 3.94409 35.2072 4.04229 35.8066 4.25386C36.2629 4.42239 36.6675 4.70679 36.9806 5.07909C37.2796 5.44902 37.4923 5.88093 37.6034 6.3434C37.7306 6.87787 37.7923 7.42581 37.7872 7.97518V12.9203H35.2959V8.2897C35.2959 7.48834 35.1921 6.92158 34.9845 6.58941C34.7727 6.2562 34.3617 6.09116 33.8012 6.09116C33.6237 6.09116 33.4337 6.09116 33.2344 6.11607C33.0351 6.14099 32.8576 6.15033 32.7019 6.17524V12.9328H30.2106L30.2075 4.4625Z" fill="url(#paint1_linear_1485_3954)"/>
<path d="M48.1566 8.54188C48.164 9.16649 48.079 9.78878 47.9043 10.3885C47.758 10.9099 47.5092 11.3969 47.1725 11.821C46.8507 12.2212 46.4403 12.541 45.9736 12.7552C45.4555 12.9856 44.8931 13.0993 44.3262 13.0884C44.0016 13.0905 43.6778 13.056 43.3609 12.9857C43.0638 12.921 42.7738 12.8271 42.4952 12.7054V16.0001H40.0039V4.47801C40.2281 4.41261 40.4835 4.34722 40.77 4.28805C41.0565 4.22888 41.3616 4.17283 41.6793 4.12924C41.9969 4.08564 42.3177 4.04827 42.6446 4.02024C42.9716 3.99221 43.2861 3.97976 43.5789 3.97976C44.236 3.96567 44.8902 4.07119 45.5096 4.29117C46.047 4.49057 46.5354 4.80275 46.9421 5.20671C47.3392 5.61768 47.6429 6.10946 47.8327 6.64852C48.0505 7.25585 48.1601 7.89668 48.1566 8.54188ZM45.6248 8.60727C45.6579 7.95481 45.4763 7.30947 45.1079 6.76997C44.9288 6.53795 44.6953 6.35353 44.4281 6.23298C44.161 6.11242 43.8682 6.05942 43.5757 6.07864C43.3546 6.07864 43.1491 6.07864 42.9529 6.10356C42.7962 6.11429 42.6403 6.13405 42.4858 6.16272V10.6408C42.6797 10.7547 42.8897 10.8387 43.1086 10.8899C43.3555 10.9555 43.6099 10.989 43.8654 10.9895C45.0383 10.9895 45.6248 10.1934 45.6248 8.60104V8.60727Z" fill="url(#paint2_linear_1485_3954)"/>
<path d="M52.7843 1.63174C52.7949 1.83241 52.7607 2.03291 52.6842 2.21873C52.6077 2.40455 52.4909 2.57103 52.3421 2.7061C52.0545 2.95879 51.6848 3.09814 51.302 3.09814C50.9192 3.09814 50.5494 2.95879 50.2619 2.7061C49.9787 2.42085 49.8198 2.03523 49.8198 1.6333C49.8198 1.23138 49.9787 0.845748 50.2619 0.560501C50.5494 0.307814 50.9192 0.168457 51.302 0.168457C51.6848 0.168457 52.0545 0.307814 52.3421 0.560501C52.4908 0.694955 52.6076 0.860878 52.6841 1.04619C52.7606 1.2315 52.7948 1.43154 52.7843 1.63174Z" fill="url(#paint3_linear_1485_3954)"/>
<path d="M54.7988 1.98374L57.2901 1.58203V4.1636H60.2703V6.22823H57.2901V9.30804C57.2718 9.74 57.3662 10.1693 57.5641 10.5537C57.7479 10.8651 58.1184 11.0208 58.6727 11.0208C58.9495 11.0199 59.2256 10.9949 59.498 10.946C59.7612 10.9003 60.0198 10.8305 60.2703 10.7374L60.6221 12.6681C60.297 12.7963 59.9629 12.9004 59.6225 12.9795C59.1799 13.0772 58.7273 13.1222 58.2741 13.1134C57.7011 13.1321 57.13 13.039 56.5925 12.8394C56.1784 12.6783 55.812 12.4147 55.5275 12.0733C55.2499 11.7263 55.0579 11.3188 54.967 10.8838C54.8588 10.3719 54.8066 9.84985 54.8113 9.32673L54.7988 1.98374Z" fill="#182848"/>
<path d="M61.522 8.6008C61.5086 7.90516 61.6302 7.21353 61.8801 6.56419C62.0922 6.02144 62.4097 5.5261 62.8143 5.10681C63.2002 4.72953 63.6591 4.43495 64.1627 4.24109C64.6573 4.0394 65.1857 3.93372 65.7198 3.92969C66.9654 3.92969 67.9474 4.30961 68.6657 5.06944C69.384 5.82927 69.7452 6.94826 69.7494 8.42641C69.7494 8.56966 69.7494 8.73782 69.7307 8.89975C69.712 9.06168 69.7089 9.21115 69.6964 9.35751H64.0693C64.0916 9.60028 64.1674 9.8351 64.2912 10.0451C64.4151 10.2551 64.5839 10.435 64.7855 10.572C65.2911 10.8967 65.8858 11.0546 66.4858 11.0235C66.935 11.023 67.3833 10.9813 67.8249 10.899C68.1933 10.8346 68.5535 10.7302 68.8992 10.5876L69.2324 12.6024C69.0601 12.6818 68.8821 12.7484 68.6999 12.8017C68.456 12.8724 68.2086 12.9306 67.9588 12.9761C67.6847 13.0259 67.3951 13.0664 67.0837 13.1006C66.7735 13.1343 66.4616 13.151 66.1495 13.1505C65.4475 13.1658 64.7489 13.0475 64.0911 12.8017C63.5443 12.5913 63.0501 12.264 62.6431 11.8425C62.2579 11.4326 61.9686 10.9423 61.796 10.407C61.6081 9.82358 61.5155 9.21368 61.522 8.6008ZM67.3515 7.66657C67.3395 7.45544 67.3029 7.24642 67.2425 7.04376C67.1837 6.84948 67.0874 6.66858 66.9592 6.51125C66.8262 6.35182 66.6619 6.22145 66.4765 6.12822C66.2499 6.02144 66.0012 5.9702 65.7509 5.97875C65.5058 5.97241 65.2623 6.02026 65.0378 6.11888C64.8459 6.20769 64.6751 6.33611 64.5364 6.49568C64.3986 6.65335 64.2929 6.83633 64.225 7.03442C64.1541 7.23701 64.1009 7.4454 64.0662 7.65723L67.3515 7.66657Z" fill="#182848"/>
<path d="M71.2479 8.54195C71.245 7.93137 71.3505 7.32512 71.5593 6.75136C71.753 6.20528 72.0577 5.70528 72.4544 5.28292C72.851 4.86056 73.3309 4.52501 73.8637 4.29747C74.463 4.04302 75.1093 3.91781 75.7602 3.93001C76.5907 3.91952 77.414 4.08398 78.1767 4.41269L77.6598 6.39324C77.4095 6.30048 77.1537 6.22352 76.8937 6.1628C76.5876 6.09094 76.2739 6.05643 75.9595 6.06004C75.6514 6.03741 75.3423 6.08763 75.0572 6.20665C74.7721 6.32567 74.519 6.51014 74.3184 6.74513C73.9367 7.264 73.7453 7.89854 73.7766 8.54195C73.7372 9.1918 73.9158 9.8362 74.2841 10.373C74.6225 10.8069 75.2142 11.0239 76.0592 11.0239C76.3827 11.0217 76.7055 10.9936 77.0245 10.9398C77.3457 10.889 77.6594 10.799 77.9587 10.672L78.3106 12.7055C77.9604 12.8442 77.5974 12.9485 77.2269 13.0169C76.7553 13.1104 76.2753 13.1553 75.7945 13.1508C75.0904 13.1681 74.3899 13.0464 73.7329 12.7927C73.1908 12.5782 72.7035 12.2452 72.3067 11.818C71.9313 11.3983 71.6537 10.9005 71.4939 10.3606C71.3206 9.77027 71.2376 9.1571 71.2479 8.54195Z" fill="#182848"/>
<path d="M79.9854 12.9203V0.401713L82.4766 0V4.19777C82.6866 4.13054 82.901 4.07748 83.1181 4.03895C83.3674 3.99035 83.6208 3.96533 83.8748 3.96421C84.4786 3.94589 85.0802 4.04422 85.6467 4.25382C86.0891 4.4272 86.4794 4.71137 86.7803 5.07905C87.0711 5.45078 87.2754 5.88271 87.3782 6.34336C87.5016 6.87837 87.5612 7.42611 87.5557 7.97514V12.9203H85.0644V8.28966C85.0644 7.48831 84.9606 6.92154 84.753 6.58937C84.5475 6.25617 84.1675 6.09113 83.6132 6.09113C83.4043 6.0903 83.1958 6.10906 82.9904 6.14718C82.7974 6.18766 82.623 6.22814 82.4673 6.27485V12.9327L79.9854 12.9203Z" fill="#182848"/>
<path d="M52.5503 4.16357H50.0684V12.9203H52.5503V4.16357Z" fill="url(#paint4_linear_1485_3954)"/>
<path d="M7.82952 13.4339C7.93868 13.4339 8.38279 7.1789 8.38279 7.1789C7.90266 6.67069 7.49962 6.09485 7.18652 5.46973C7.18652 5.46973 7.71886 13.4339 7.82952 13.4339Z" fill="url(#paint5_linear_1485_3954)"/>
<path d="M8.70292 1.61485C8.70292 0.949425 8.32908 0.448486 7.83412 0.448486C7.33917 0.448486 6.96533 0.949425 6.96533 1.61485C6.96579 1.67232 6.96929 1.72972 6.9758 1.78681L7.18365 5.46983C7.49675 6.09495 7.89979 6.67079 8.37992 7.179L8.68946 1.79578C8.69723 1.73576 8.70172 1.67536 8.70292 1.61485ZM7.83412 2.94271C7.37505 2.94271 7.30627 2.05298 7.30627 1.61485C7.30627 1.29784 7.47973 0.775966 7.83412 0.775966C8.29319 0.775966 8.36198 1.29784 8.36198 1.61485C8.36198 2.05298 8.29319 2.94271 7.83412 2.94271Z" fill="url(#paint6_linear_1485_3954)"/>
<path d="M10.6623 12.7056L10.4435 12.4867C10.3285 12.3717 10.2639 12.2158 10.2639 12.0532C10.2639 11.8906 10.3285 11.7346 10.4435 11.6196L14.5809 7.48219L15.117 8.01827C15.261 8.16337 15.3421 8.35933 15.3427 8.56375C15.3433 8.76816 15.2633 8.9646 15.1202 9.11052L11.5252 12.7056C11.4104 12.8192 11.2553 12.883 11.0937 12.883C10.9322 12.883 10.7771 12.8192 10.6623 12.7056Z" fill="url(#paint7_linear_1485_3954)"/>
<path d="M0.549828 8.01926L1.08591 7.48318L5.22337 11.6206C5.33835 11.7356 5.40294 11.8916 5.40294 12.0542C5.40294 12.2168 5.33835 12.3727 5.22337 12.4877L5.0045 12.7066C4.88952 12.8215 4.73358 12.8861 4.57098 12.8861C4.40838 12.8861 4.25244 12.8215 4.13746 12.7066L0.549828 9.11892C0.404005 8.9731 0.322081 8.77532 0.322081 8.56909C0.322081 8.36287 0.404005 8.16509 0.549828 8.01926Z" fill="url(#paint8_linear_1485_3954)"/>
<path d="M12.6714 3.51843C12.0015 3.56179 11.7937 4.46498 11.9716 4.85077L11.9028 4.78199C11.5036 4.09114 10.8561 2.4702 12.7597 1.32178C10.4344 1.38159 9.96487 2.61674 10.0232 3.73824C10.081 4.66648 10.4793 5.54075 11.1417 6.19359L14.5914 9.64333L15.3825 8.87472C15.4227 8.83459 15.4546 8.78692 15.4763 8.73445C15.4981 8.68198 15.5093 8.62573 15.5093 8.56893C15.5093 8.51213 15.4981 8.45588 15.4763 8.40341C15.4546 8.35094 15.4227 8.30327 15.3825 8.26313L13.9739 6.85453C13.3563 6.23546 11.849 4.51582 12.6714 3.51843Z" fill="url(#paint9_linear_1485_3954)"/>
<path d="M2.99855 3.51843C3.66696 3.56329 3.87631 4.46498 3.69687 4.85077L3.76715 4.78199C4.1664 4.09114 4.81388 2.47169 2.90883 1.32178C5.23407 1.38159 5.70361 2.61824 5.64529 3.73824C5.58801 4.66662 5.18965 5.54108 4.52678 6.19359L1.07704 9.64482L0.284509 8.87472C0.244315 8.83459 0.212427 8.78692 0.190671 8.73445C0.168914 8.68198 0.157715 8.62573 0.157715 8.56893C0.157715 8.51213 0.168914 8.45588 0.190671 8.40341C0.212427 8.35094 0.244315 8.30327 0.284509 8.26313L1.69461 6.85453C2.31219 6.23695 3.81949 4.51731 2.99855 3.51843Z" fill="url(#paint10_linear_1485_3954)"/>
<defs>
<linearGradient id="paint0_linear_1485_3954" x1="16.8072" y1="5.3063" x2="57.5393" y2="15.4924" gradientUnits="userSpaceOnUse">
<stop stop-color="#8D2DE1"/>
<stop offset="1" stop-color="#FF921E"/>
</linearGradient>
<linearGradient id="paint1_linear_1485_3954" x1="16.9914" y1="4.57149" x2="57.7235" y2="14.7545" gradientUnits="userSpaceOnUse">
<stop stop-color="#8D2DE1"/>
<stop offset="1" stop-color="#FF921E"/>
</linearGradient>
<linearGradient id="paint2_linear_1485_3954" x1="17.1995" y1="3.73686" x2="57.9316" y2="13.9199" gradientUnits="userSpaceOnUse">
<stop stop-color="#8D2DE1"/>
<stop offset="1" stop-color="#FF921E"/>
</linearGradient>
<linearGradient id="paint3_linear_1485_3954" x1="19.7004" y1="-6.26866" x2="60.4324" y2="3.91434" gradientUnits="userSpaceOnUse">
<stop stop-color="#8D2DE1"/>
<stop offset="1" stop-color="#FF921E"/>
</linearGradient>
<linearGradient id="paint4_linear_1485_3954" x1="18.0744" y1="0.233616" x2="58.8064" y2="10.4166" gradientUnits="userSpaceOnUse">
<stop stop-color="#8D2DE1"/>
<stop offset="1" stop-color="#FF921E"/>
</linearGradient>
<linearGradient id="paint5_linear_1485_3954" x1="5.73306" y1="19.1775" x2="8.03588" y2="6.58973" gradientUnits="userSpaceOnUse">
<stop stop-color="#4B6CB7"/>
<stop offset="0.76" stop-color="#243863"/>
<stop offset="1" stop-color="#182848"/>
</linearGradient>
<linearGradient id="paint6_linear_1485_3954" x1="6.80384" y1="7.04292" x2="8.02253" y2="3.16103" gradientUnits="userSpaceOnUse">
<stop stop-color="#4B6CB7"/>
<stop offset="1" stop-color="#182848"/>
</linearGradient>
<linearGradient id="paint7_linear_1485_3954" x1="10.1346" y1="12.86" x2="6.63526" y2="11.6167" gradientUnits="userSpaceOnUse">
<stop stop-color="#8E2DE2"/>
<stop offset="1" stop-color="#FF931E"/>
</linearGradient>
<linearGradient id="paint8_linear_1485_3954" x1="2.52562" y1="13.3759" x2="6.0273" y2="12.133" gradientUnits="userSpaceOnUse">
<stop stop-color="#8E2DE2"/>
<stop offset="1" stop-color="#FF931E"/>
</linearGradient>
<linearGradient id="paint9_linear_1485_3954" x1="10.0172" y1="5.4833" x2="15.5096" y2="5.4833" gradientUnits="userSpaceOnUse">
<stop stop-color="#8E2DE2"/>
<stop offset="1" stop-color="#FF931E"/>
</linearGradient>
<linearGradient id="paint10_linear_1485_3954" x1="5.65127" y1="5.4833" x2="0.1589" y2="5.4833" gradientUnits="userSpaceOnUse">
<stop stop-color="#8E2DE2"/>
<stop offset="1" stop-color="#FF931E"/>
</linearGradient>
</defs>
</svg>
